<?xml version="1.0" encoding="UTF-8" standalone="no"?>
<!-- Created with Inkscape (http://www.inkscape.org/) -->

<svg
   version="1.1"
   id="svg1"
   width="2999.9998"
   height="4538.5"
   viewBox="0 0 2999.9998 4538.5001"
   sodipodi:docname="dwc_wizard_pallando.svg"
   inkscape:version="1.3 (0e150ed6c4, 2023-07-21)"
   xmlns:inkscape="http://www.inkscape.org/namespaces/inkscape"
   xmlns:sodipodi="http://sodipodi.sourceforge.net/DTD/sodipodi-0.dtd"
   xmlns="http://www.w3.org/2000/svg"
   xmlns:svg="http://www.w3.org/2000/svg">
  <defs
     id="defs1" />
  <sodipodi:namedview
     id="namedview1"
     pagecolor="#ffffff"
     bordercolor="#000000"
     borderopacity="0.25"
     inkscape:showpageshadow="2"
     inkscape:pageopacity="0.0"
     inkscape:pagecheckerboard="0"
     inkscape:deskcolor="#d1d1d1"
     inkscape:zoom="0.125"
     inkscape:cx="1196"
     inkscape:cy="2148"
     inkscape:window-width="1920"
     inkscape:window-height="991"
     inkscape:window-x="-9"
     inkscape:window-y="-9"
     inkscape:window-maximized="1"
     inkscape:current-layer="g1"
     showguides="true" />
  <g
     inkscape:groupmode="layer"
     inkscape:label="Image"
     id="g1"
     transform="matrix(22.805793,0,0,22.805793,-243.06925,-49.199557)">
    <path
       id="path5"
       style="display:inline;fill:#313131;fill-opacity:1"
       d="m 47.763672,73.160156 c 0,0 -3.419773,13.685031 -8.419922,24.080078 -5.00015,10.395046 -2.763672,27.435546 -2.763672,27.435546 0,0 0.248047,0.44141 0.576172,0.16016 0.328125,-0.28125 0.71875,-2.74219 1,-3.61719 0.28125,-0.875 0.25,-0.15625 0.25,-0.15625 0,0 0.09375,9.8125 0,11.5 -0.09375,1.6875 1.09375,5.875 1.09375,5.875 0,0 10.263295,21.63397 11.544922,23.42383 1.28163,1.78987 0.661459,3.31502 1.037109,3.64648 0.37565,0.33146 1.325942,-2.05569 1.19336,-3.00586 -0.132582,-0.95018 0.553845,-2.82778 0.443359,-1.50195 -0.110485,1.32582 0.794042,5.89906 1.037109,8.13086 0.243068,2.23181 7.115235,9.36914 7.115235,9.36914 0,0 5.348691,4.28756 5.945312,4.55273 0.596621,0.26516 -1.105201,-4.1541 -1.326172,-4.79492 -0.220969,-0.64082 0.220704,-0.13281 0.220704,-0.13281 0,0 2.894916,4.57387 3.867187,5.50195 0.97227,0.92808 3.646677,8.5952 4.132813,8.6836 0.486135,0.0884 1.148437,-4.28711 1.148437,-4.28711 0,0 -0.08839,-5.78803 0,-7.44532 0.08839,-1.65727 -0.199561,-1.32682 0.728516,-0.95117 0.928077,0.37565 2.037109,4.7168 2.037109,4.7168 0,0 0.593751,2.09375 1.75,4.875 1.156249,2.78125 1.679688,8.71875 1.679688,8.71875 0,0 -0.08594,0.76562 -0.117188,1.0625 -0.03125,0.29687 0.164062,0.14844 0.164062,0.14844 l 0.164063,-0.57032 c 0,0 -0.03906,1.40626 0.05469,2.1875 0.09375,0.78125 0.429688,0.17188 0.429688,0.17188 l 1.4375,-4.59375 c 0,0 2.427755,-8.80495 2.814453,-9.51758 0.386695,-0.71264 0.404297,0.0801 0.404297,0.0801 l -0.08984,2.83008 0.375,0.49805 c 0,-1e-5 -0.120901,1.2923 0.365235,2.4082 0.486135,1.11591 4.685547,-11.14844 4.685547,-11.14844 0,0 0.05362,-0.44223 0.9375,-2.41992 0.883882,-1.97769 0.652343,2.01172 0.652343,2.01172 0,0 -0.553119,2.16571 -1.52539,4.99414 -0.972271,2.82843 -0.376953,5.30273 -0.376953,5.30273 -10e-7,0 0.03137,0.0304 1.589843,-1.36523 1.558473,-1.39565 6.213292,-13.64738 6.673832,-14.6836 0.46054,-1.03621 0.19743,2.97674 0.11523,4.45704 -0.0822,1.4803 6.1e-4,1.64614 0.0664,2.86328 0.0658,1.21715 1.74219,-0.69141 1.74219,-0.69141 0,0 0.11587,-0.1313 2.48437,-2.58203 2.36849,-2.45074 5.70117,-13.72266 5.70117,-13.72266 0,0 -0.0813,-0.73984 0.52344,-1.71679 0.60479,-0.97696 0.32471,4.79213 1.67383,3.39648 1.34913,-1.39564 0.97846,-9.76979 2.51367,-12.375 1.53521,-2.60521 7.29492,-15.61719 7.29492,-15.61719 0,0 0.0562,-0.0493 0.10547,0.89649 0.0493,0.94575 -0.17968,1.30859 -0.17968,1.30859 l -0.0918,0.25391 c -0.0902,0.25495 0.22247,4.02198 -0.008,4.28515 -0.23024,0.26316 -0.25391,0.83985 -0.25391,0.83985 0,0 0.29594,0.032 1.45898,-1.41016 1.16304,-1.44217 1.39699,-2.46527 2.23438,-5.34961 0.83739,-2.88434 1.02358,-4.32622 1.81445,-7.67578 0.79087,-3.34956 -0.002,-6.46711 -0.23437,-7.53711 -0.23257,-1.07 0.0118,-4.27991 0.0234,-4.61719 0.0116,-0.33728 0.24415,-0.10546 0.24415,-0.10546 0,0 0.059,0.15176 0.11718,1.36132 0.0581,1.20956 1.33789,3.31446 1.33789,3.31446 0,0 0.32615,-0.2789 0.83789,-1.25586 0.51172,-0.97695 0.32406,-4.18631 0.0449,-7.62891 -0.27913,-3.4426 -3.25603,-10.14306 -3.53516,-11.49219 -0.27913,-1.34913 0.37305,-1.85937 0.37305,-1.85937 0,0 2.2324,3.489 2.74414,3.07031 0.51178,-0.41869 -0.0937,-2.32617 -0.0937,-2.32617 0,0 -1.02208,-5.629131 -4.18555,-9.257814 -3.16347,-3.628682 -4.32812,-9.677734 -4.32812,-9.677734 h -4.2793 l -0.18555,1.769531 c 0,0 -0.32598,1.441462 -0.55859,4.791016 -0.2326,3.349552 -3.44336,10.560551 -3.44336,10.560551 0,0 -0.23171,0.93069 -5.02344,2.60546 -4.79172,1.67478 -8.234377,-4.09375 -8.234377,-4.09375 0,0 -3.117411,-5.070978 -6.746094,-6.187496 -3.628682,-1.116518 -9.675781,1.115235 -9.675781,1.115235 0,0 -5.454423,-1.224827 -10.191407,-0.830078 -4.736983,0.394748 -11.578125,10.132809 -11.578125,10.132809 0,0 -0.659137,1.44799 -7.238281,-2.23632 -6.579144,-3.68433 -6.316406,-28.949224 -6.316406,-28.949224 z m 36.042969,31.996094 c 0.240555,-0.003 0.480604,-0.002 0.720703,0.0137 0.23815,0.0226 0.47077,0.075 0.699218,0.14453 0.233666,0.069 0.467752,0.1407 0.699219,0.2168 0.233297,0.0753 0.463171,0.15811 0.699219,0.22461 0.264162,0.0641 0.520115,0.15509 0.777344,0.24219 0.20409,0.0699 0.409733,0.13999 0.611328,0.21679 0.150286,0.0698 0.309496,0.11076 0.466797,0.16016 0.126248,0.0346 0.253035,0.0711 0.380859,0.0996 0.190927,0.0227 0.368677,0.0831 0.541016,0.16601 0.20499,0.10601 0.394121,0.24027 0.59375,0.35547 0.169085,0.1109 0.344295,0.20964 0.521484,0.30664 0.159014,0.0861 0.32579,0.15772 0.492188,0.22852 0.149177,0.0507 0.285024,0.12928 0.435546,0.17578 0.148362,0.0326 0.297422,0.0645 0.447266,0.0898 0.19709,0.025 0.397,0.0819 0.539063,0.23046 0.04048,0.0423 0.06916,0.0951 0.103515,0.14258 0.02041,0.0719 0.05295,0.1424 0.06055,0.2168 0.02833,0.27743 -0.162511,0.48402 -0.361328,0.64062 -0.234452,0.15879 -0.506043,0.24413 -0.767578,0.34571 -0.245709,0.0834 -0.487607,0.17582 -0.732422,0.26172 -0.287534,0.1141 -0.583794,0.19974 -0.882813,0.27734 -0.275874,0.0707 -0.550509,0.14752 -0.822265,0.23242 -0.254705,0.0727 -0.506929,0.15231 -0.761719,0.22461 -0.237134,0.0722 -0.465834,0.16889 -0.701172,0.24609 -0.282331,0.0846 -0.57642,0.11357 -0.86914,0.13477 -0.28507,0.0184 -0.569933,0.0214 -0.855469,0.0254 -0.22331,-0.007 -0.445163,0.0129 -0.666016,0.043 -0.228054,0.0333 -0.457561,0.0525 -0.6875,0.0664 -0.242522,0.0125 -0.485749,0.0146 -0.728515,0.0176 -0.196495,0.002 -0.39334,0.002 -0.589844,0.002 -0.286703,0.007 -0.571251,-0.006 -0.857422,-0.0215 -0.271059,-0.008 -0.540787,-0.035 -0.810547,-0.0605 -0.218166,-0.0349 -0.437834,-0.0591 -0.658203,-0.0742 -0.230393,-0.007 -0.459968,-0.0277 -0.6875,-0.0645 -0.205865,-0.0268 -0.407025,-0.074 -0.609375,-0.11914 -0.207905,-0.0482 -0.411232,-0.11655 -0.621094,-0.15625 -0.214109,-0.0442 -0.426317,-0.0947 -0.638672,-0.14648 -0.160118,-0.0389 -0.322418,-0.0662 -0.486328,-0.082 -0.2503,-0.0297 -0.495945,-0.0895 -0.736328,-0.16407 -0.186315,-0.0615 -0.377816,-0.10459 -0.568359,-0.15039 -0.177401,-0.0476 -0.352342,-0.10468 -0.53125,-0.14648 -0.152877,-0.0242 -0.304455,-0.058 -0.457032,-0.084 -0.149894,-0.0346 -0.300692,-0.0639 -0.451171,-0.0957 -0.147928,-0.0263 -0.277254,-0.10859 -0.419922,-0.15039 -0.13392,-0.0284 -0.253792,-0.0937 -0.378907,-0.14648 -0.175332,-0.0561 -0.325994,-0.14963 -0.460937,-0.27344 -0.02131,-0.0264 -0.03742,-0.0523 -0.05469,-0.0781 -0.41682,0.10943 -0.260424,-0.166 -0.09766,-0.44726 0.02161,-0.0792 0.06356,-0.15757 0.126953,-0.23633 0.08687,-0.18686 0.08643,-0.31688 -0.238281,-0.23047 -0.01324,0.004 -0.04286,0.0249 -0.03906,0.0117 0.0042,-0.0144 0.02729,-0.0116 0.04102,-0.0176 0.02828,-0.0128 0.114765,-0.071 0.171875,-0.10351 0.184979,-0.0948 0.372815,-0.18414 0.560547,-0.27344 0.208602,-0.0975 0.423929,-0.18094 0.634766,-0.27344 0.194953,-0.0825 0.39087,-0.16283 0.58789,-0.24023 0.184177,-0.0727 0.375446,-0.12024 0.564454,-0.17774 0.207185,-0.0781 0.416012,-0.15253 0.630859,-0.20703 0.21188,-0.0588 0.423447,-0.11693 0.634765,-0.17773 0.198052,-0.0619 0.3938,-0.12376 0.597657,-0.16406 0.198805,-0.0255 0.392587,-0.0805 0.583984,-0.13868 0.166313,-0.0664 0.341186,-0.11144 0.505859,-0.18164 0.15085,-0.0718 0.31359,-0.11514 0.464844,-0.18554 0.148211,-0.0732 0.303012,-0.13122 0.455078,-0.19532 0.215137,-0.0989 0.442427,-0.16015 0.669922,-0.22265 0.206352,-0.0613 0.421155,-0.0858 0.632813,-0.11914 0.183467,-0.0333 0.368867,-0.0541 0.554687,-0.0684 0.200326,-0.008 0.399862,-0.0305 0.59961,-0.0469 0.223768,-0.018 0.447505,-0.0263 0.671875,-0.0312 0.249732,-0.005 0.50023,-0.007 0.75,-0.008 z m -1.958985,2.79102 c -0.0083,0.002 -0.01707,0.004 -0.02539,0.006 0.0078,-4.4e-4 0.01564,4.4e-4 0.02344,0 8.13e-4,-0.002 0.0011,-0.004 0.002,-0.006 z m -3.064453,0.23046 c -0.03867,0.009 -0.07827,0.0159 -0.117187,0.0234 0.02853,0.007 0.05744,0.0126 0.08594,0.0195 0.01133,0.003 0.02194,0.007 0.0332,0.01 -0.0012,-0.0176 -9.89e-4,-0.0352 -0.002,-0.0527 z M 83.5,110.20117 c -0.01978,0 -0.07941,0.01 -0.06055,0.004 0.0162,-0.005 0.04129,-10e-4 0.0625,0 -3.6e-4,-10e-4 -0.0016,-0.003 -0.002,-0.004 z" />
    <path
       style="display:inline;fill:#2d9ce6;fill-opacity:1"
       d="m 25.000772,69.212663 c 0,0 11.579305,-8.684479 22.895443,-8.947645 11.316139,-0.263166 11.316139,-0.263166 11.316139,-0.263166 l 7.763398,-1.381621 c 0,0 3.815907,-2.960618 3.750115,-4.079074 -0.06579,-1.118455 1.776371,-3.684324 2.302703,-3.684324 0.526332,0 -1.118455,-3.289575 0,-5.460695 1.118456,-2.171119 2.565869,-3.48695 2.565869,-3.48695 0,0 1.447413,-1.578996 1.052664,-3.026409 -0.394749,-1.447413 5.526486,-3.94749 6.184401,-4.934363 0.657915,-0.986872 3.02641,-3.684324 2.960618,-5.723861 -0.06579,-2.039536 2.500077,-1.250038 3.48695,-2.763243 0.986872,-1.513204 4.144865,-9.934517 5.329112,-10.987181 1.184247,-1.052664 2.500077,-1.973745 4.473822,-2.17112 1.973744,-0.197374 10.778794,-7.4647626 13.197924,-8.4649774 2.41912,-1.0002148 3.4426,-1.3956486 3.67521,-1.4421702 0.2326,-0.046522 2.76803,-0.8839108 4.37303,0.8839107 1.60499,1.7678216 8.65302,12.2119249 8.65302,12.2119249 l 6.02455,8.955412 c 0,0 0.0465,0.534998 -1.16304,-0.27913 -1.20956,-0.814128 -8.4902,-5.047596 -11.67693,-8.141283 -3.18673,-3.093688 -4.25673,-4.814988 -4.25673,-4.814988 0,0 -0.27913,-0.58152 -0.81412,-0.232608 -0.535,0.348912 -0.86065,1.023476 -1.79109,2.372603 -0.93043,1.349127 -2.76803,4.861509 -3.72173,5.443029 -0.95369,0.58152 -2.09347,0.651303 -2.09347,0.651303 0,0 -2.41912,0.04652 -2.95412,0.651302 -0.535,0.604782 -0.32565,2.86108 -0.32565,2.86108 l 0.0465,6.001289 c 0,0 1.23282,1.791082 1.51195,3.512382 0.27913,1.7213 0.88391,2.58195 0.13957,5.652377 -0.74435,3.070427 -0.74435,3.070427 -0.74435,3.070427 0,0 -1.34913,3.74499 -0.76761,5.070856 0.58152,1.325866 0.74435,1.884126 0.535,3.16347 -0.20935,1.279345 -1.20956,3.233253 -1.27934,5.722159 -0.0698,2.488907 0.25587,2.837819 0.25587,2.837819 0,0 -0.39544,0.55826 0.32565,1.209562 0.72108,0.651303 11.49084,5.605855 15.42191,8.769326 3.93108,3.16347 5.18716,4.559118 5.18716,4.559118 0,0 4.27999,2.721515 7.3039,3.419339 3.0239,0.697824 7.4202,1.767822 8.02498,1.581735 0.60478,-0.186086 -7.02477,7.559763 -15.58474,8.04824 -8.55998,0.488477 -6.86194,1.41891 -14.9567,0.488477 C 103.53386,85.134563 95.369319,83.948262 89.670421,82.482831 83.971522,81.0174 66.037438,76.690889 66.037438,76.690889 c 0,0 -11.374536,-2.861079 -21.28364,-4.32651 -9.909105,-1.465431 -11.49084,-1.674779 -11.49084,-1.674779 0,0 -6.536288,-0.628042 -7.908676,-0.628042 -1.372387,0 -1.791082,0.09304 -0.35351,-0.848895 z"
       id="path3" />
    <path
       style="display:inline;fill:#d3b683;fill-opacity:1"
       d="M 46.975134,200.26934 33.751042,187.30841 c 0,0 2.565869,-22.36911 4.671197,-25.79027 2.105328,-3.42115 6.447567,-8.02656 6.447567,-8.02656 l -8.552895,1.64479 -8.158147,-6.2502 -5.789652,-12.10563 1.250038,-11.84247 1.31583,10.0661 9.210811,9.34239 6.57915,-7.17127 1.710579,-12.03985 -4.342239,-9.93452 -7.763397,-7.43444 -13.421467,-7.6976 -6.250193,-13.355677 9.342393,10.131892 11.908263,3.486945 -7.566023,-13.421462 -3.750116,-15.526795 7.368648,13.947799 6.644942,4.210656 9.079228,-0.986873 4.868571,-11.447722 -6.052818,-9.145019 1.052664,-10.921389 -2.565869,-9.60556 6.250193,9.473977 0.723707,8.881853 8.355521,10.000308 7.105482,-5.592278 6.9739,-11.908262 -2.105328,-10.000309 8.289729,10.592433 -6.644942,14.803088 -14.01359,9.539768 -10.197683,14.079382 0.526332,7.500235 15.000463,-5.197532 5.789652,-7.039691 -1.513204,12.237223 -17.04,10.39505 2.039537,9.93452 -3.092201,15.19784 6.644942,5.98703 0.789498,10.19768 -7.302857,10.32927 -3.750116,13.28988 z"
       id="path4" />
  </g>
</svg>
