<?xml version="1.0" encoding="UTF-8" standalone="no"?>
<!-- Created with Inkscape (http://www.inkscape.org/) -->

<svg
   width="1500"
   height="400"
   viewBox="0 0 396.87499 105.83333"
   version="1.1"
   id="svg1"
   inkscape:version="1.3 (0e150ed6c4, 2023-07-21)"
   sodipodi:docname="dwg_text_purple_green.svg"
   xmlns:inkscape="http://www.inkscape.org/namespaces/inkscape"
   xmlns:sodipodi="http://sodipodi.sourceforge.net/DTD/sodipodi-0.dtd"
   xmlns="http://www.w3.org/2000/svg"
   xmlns:svg="http://www.w3.org/2000/svg">
  <sodipodi:namedview
     id="namedview1"
     pagecolor="#ffffff"
     bordercolor="#000000"
     borderopacity="0.25"
     inkscape:showpageshadow="2"
     inkscape:pageopacity="0.0"
     inkscape:pagecheckerboard="0"
     inkscape:deskcolor="#d1d1d1"
     inkscape:document-units="mm"
     inkscape:zoom="0.69219276"
     inkscape:cx="766.40501"
     inkscape:cy="244.87399"
     inkscape:window-width="1920"
     inkscape:window-height="991"
     inkscape:window-x="-9"
     inkscape:window-y="-9"
     inkscape:window-maximized="1"
     inkscape:current-layer="layer1" />
  <defs
     id="defs1" />
  <g
     inkscape:label="Layer 1"
     inkscape:groupmode="layer"
     id="layer1">
    <path
       id="text1"
       style="font-size:45.861px;font-family:Cinzel;-inkscape-font-specification:Cinzel;letter-spacing:0.529167px;word-spacing:3.98992px;fill:#9656f0;stroke-width:0.264999;fill-opacity:1"
       d="M 2.8432373 22.465812 L 2.8432373 54.660229 L 14.905033 54.660229 C 18.26817 54.660229 21.218533 53.987519 23.756173 52.642265 C 26.324386 51.29701 28.296262 49.401708 29.672091 46.95579 C 31.078493 44.509873 31.781523 41.71214 31.781523 38.563021 C 31.781523 35.383328 31.078493 32.585595 29.672091 30.170251 C 28.296262 27.724334 26.339287 25.829032 23.801648 24.483777 C 21.264008 23.138522 18.298744 22.465812 14.905033 22.465812 L 2.8432373 22.465812 z M 46.252474 22.465812 L 34.604089 54.660229 L 42.812891 54.660229 L 44.739388 48.973238 L 56.754675 48.973238 L 58.680656 54.660229 L 66.981958 54.660229 L 55.333057 22.465812 L 46.252474 22.465812 z M 69.299646 22.465812 L 69.299646 28.748633 L 77.829358 28.748633 L 77.829358 54.660229 L 85.671773 54.660229 L 85.671773 28.748633 L 94.202002 28.748633 L 94.202002 22.465812 L 69.299646 22.465812 z M 108.21407 22.465812 L 96.565682 54.660229 L 104.77448 54.660229 L 106.70098 48.973238 L 118.71627 48.973238 L 120.64277 54.660229 L 128.94355 54.660229 L 117.29465 22.465812 L 108.21407 22.465812 z M 145.54874 22.465812 L 153.71206 54.660229 L 163.20503 54.660229 L 168.52511 33.472375 L 173.66123 54.660229 L 183.15471 54.660229 L 191.54696 22.465812 L 183.10872 22.465812 L 178.43097 45.900557 L 172.92743 22.465812 L 164.30573 22.465812 L 158.57327 45.900557 L 153.94099 22.465812 L 145.54874 22.465812 z M 196.02059 22.465812 L 196.02059 54.660229 L 203.86249 54.660229 L 203.86249 22.465812 L 196.02059 22.465812 z M 209.5283 22.465812 L 209.5283 28.886609 L 223.28663 28.886609 L 209.5283 48.698319 L 209.5283 54.660229 L 232.27523 54.660229 L 232.27523 48.23995 L 218.42543 48.23995 L 232.27523 28.427722 L 232.27523 22.465812 L 209.5283 22.465812 z M 247.47998 22.465812 L 235.83108 54.660229 L 244.0404 54.660229 L 245.96638 48.973238 L 257.98219 48.973238 L 259.90817 54.660229 L 268.20895 54.660229 L 256.56057 22.465812 L 247.47998 22.465812 z M 272.26969 22.465812 L 272.26969 54.660229 L 280.1121 54.660229 L 280.1121 42.506966 L 281.99209 42.506966 L 288.68781 54.660229 L 297.53894 54.660229 L 290.10942 41.91062 C 292.46362 41.207419 294.23713 40.015146 295.42951 38.333577 C 296.65247 36.652009 297.26403 34.741289 297.26403 32.601111 C 297.26403 30.705525 296.82052 28.993172 295.93387 27.464473 C 295.04723 25.905201 293.70181 24.682609 291.89795 23.795964 C 290.12465 22.909318 287.96931 22.465812 285.43167 22.465812 L 272.26969 22.465812 z M 302.70039 22.465812 L 302.70039 54.660229 L 314.76167 54.660229 C 318.1248 54.660229 321.07517 53.987519 323.61281 52.642265 C 326.18102 51.29701 328.15289 49.401708 329.52872 46.95579 C 330.93513 44.509873 331.63867 41.71214 331.63867 38.563021 C 331.63867 35.383328 330.93513 32.585595 329.52872 30.170251 C 328.15289 27.724334 326.19644 25.829032 323.6588 24.483777 C 321.12116 23.138522 318.15538 22.465812 314.76167 22.465812 L 302.70039 22.465812 z M 336.57015 22.465812 L 336.57015 54.660229 L 344.41257 54.660229 L 344.41257 42.506966 L 346.29256 42.506966 L 352.98827 54.660229 L 361.83993 54.660229 L 354.41041 41.91062 C 356.7646 41.207419 358.5376 40.015146 359.72998 38.333577 C 360.95294 36.652009 361.56449 34.741289 361.56449 32.601111 C 361.56449 30.705525 361.12099 28.993172 360.23434 27.464473 C 359.3477 25.905201 358.00279 24.682609 356.19893 23.795964 C 354.42564 22.909318 352.26978 22.465812 349.73214 22.465812 L 336.57015 22.465812 z M 364.47853 22.465812 L 375.62255 44.020569 L 375.62255 54.660229 L 383.46497 54.660229 L 383.46497 44.020569 L 394.60899 22.465812 L 385.80384 22.465812 L 379.61249 35.94871 L 373.37566 22.465812 L 364.47853 22.465812 z M 280.1121 28.978076 L 284.9733 28.978076 C 286.41028 28.978076 287.48024 29.329591 288.18344 30.032792 C 288.91722 30.735993 289.28415 31.699063 289.28415 32.922021 C 289.28415 34.206128 288.91722 35.200034 288.18344 35.903235 C 287.48024 36.606436 286.41028 36.957951 284.9733 36.957951 L 280.1121 36.957951 L 280.1121 28.978076 z M 344.41257 28.978076 L 349.27377 28.978076 C 350.71075 28.978076 351.78071 29.329591 352.48391 30.032792 C 353.21769 30.735993 353.58462 31.699063 353.58462 32.922021 C 353.58462 34.206128 353.21769 35.200034 352.48391 35.903235 C 351.78071 36.606436 350.71075 36.957951 349.27377 36.957951 L 344.41257 36.957951 L 344.41257 28.978076 z M 10.685653 29.161528 L 14.400155 29.161528 C 17.36583 29.161528 19.674319 29.986868 21.325313 31.637862 C 22.976308 33.288856 23.801648 35.597346 23.801648 38.563021 C 23.801648 41.528696 22.976308 43.821767 21.325313 45.442187 C 19.674319 47.062608 17.36583 47.873047 14.400155 47.873047 L 10.685653 47.873047 L 10.685653 29.161528 z M 310.54229 29.161528 L 314.2573 29.161528 C 317.22298 29.161528 319.53095 29.986868 321.18195 31.637862 C 322.83294 33.288856 323.6588 35.597346 323.6588 38.563021 C 323.6588 41.528696 322.83294 43.821767 321.18195 45.442187 C 319.53095 47.062608 317.22298 47.873047 314.2573 47.873047 L 310.54229 47.873047 L 310.54229 29.161528 z M 50.746773 31.1335 L 54.736711 42.919861 L 46.802828 42.919861 L 50.746773 31.1335 z M 112.70888 31.1335 L 116.6983 42.919861 L 108.76442 42.919861 L 112.70888 31.1335 z M 251.97428 31.1335 L 255.96422 42.919861 L 248.03034 42.919861 L 251.97428 31.1335 z " />
    <path
       id="text2"
       style="font-size:45.8611px;font-family:Cinzel;-inkscape-font-specification:Cinzel;letter-spacing:1.6219px;word-spacing:3.98992px;fill:#59f36d;fill-opacity:1;stroke-width:0.264999;stroke-dasharray:none"
       d="M 228.43464 58.471883 L 228.43464 59.205688 L 228.43464 59.664575 L 228.43464 60.489848 L 228.43464 60.581832 L 228.43464 63.654513 L 228.939 63.654513 L 228.939 62.920707 C 228.939 62.278652 229.13788 61.743674 229.53534 61.315637 C 229.96338 60.857027 230.52868 60.612406 231.23188 60.581832 L 239.53318 60.581832 L 239.53318 83.833126 C 239.50261 84.505755 239.22715 85.086987 238.70739 85.576172 C 238.18763 86.065356 237.56066 86.309977 236.82689 86.309977 L 236.55197 86.309977 L 236.27705 86.309977 L 236.27705 86.768347 L 239.53318 86.768347 L 239.62465 86.768347 L 242.37642 86.768347 L 242.51388 86.768347 L 245.72402 86.768347 L 245.72402 86.309977 L 245.4491 86.309977 L 245.21966 86.309977 C 244.48588 86.309977 243.85943 86.065356 243.33967 85.576172 C 242.81991 85.086987 242.54445 84.505755 242.51388 83.833126 L 242.51388 60.581832 L 250.81466 60.581832 C 251.51787 60.612406 252.06826 60.857027 252.46573 61.315637 C 252.89376 61.743674 253.10806 62.278652 253.10806 62.920707 L 253.10806 63.654513 L 253.61243 63.654513 L 253.61243 60.581832 L 253.61243 60.489848 L 253.61243 59.664575 L 253.61243 59.205688 L 253.61243 58.471883 C 253.33726 58.563605 252.90917 58.671014 252.32827 58.793311 C 251.74736 58.915607 251.10497 59.022499 250.40177 59.114221 C 249.72914 59.175369 249.08727 59.205688 248.47579 59.205688 L 233.57076 59.205688 C 232.95928 59.205688 232.30199 59.175369 231.59878 59.114221 C 230.89558 59.022499 230.25371 58.915607 229.6728 58.793311 C 229.12247 58.671014 228.7098 58.563605 228.43464 58.471883 z M 117.15409 58.563867 L 117.33754 60.260404 C 117.49041 61.391644 117.56698 62.737058 117.56698 64.296334 L 117.56698 83.92511 C 117.56698 84.597739 117.32236 85.163037 116.83318 85.621647 C 116.34399 86.080258 115.74786 86.309977 115.04466 86.309977 L 114.63176 86.309977 L 114.26486 86.309977 L 114.26486 86.768347 L 117.56698 86.768347 L 117.70444 86.768347 L 119.49348 86.768347 L 119.63094 86.768347 L 122.93306 86.768347 L 122.93306 86.309977 L 122.52017 86.309977 L 122.15327 86.309977 C 121.48064 86.309977 120.8845 86.080258 120.36475 85.621647 C 119.87556 85.163037 119.63094 84.597739 119.63094 83.92511 L 119.62577 83.92511 L 119.59167 64.773824 L 143.47858 87.410168 L 143.89148 87.410168 L 143.75402 86.584896 C 143.69287 86.003989 143.63171 85.270127 143.57056 84.38348 C 143.50942 83.466259 143.47858 82.518612 143.47858 81.540243 L 143.47858 62.094918 C 143.47858 61.422289 143.7232 60.856991 144.21239 60.398381 C 144.73214 59.93977 145.32828 59.71005 146.00091 59.71005 L 146.36781 59.71005 L 146.7807 59.71005 L 146.7807 59.251681 L 143.47858 59.251681 L 143.34112 59.251681 L 141.5526 59.251681 L 141.46062 59.251681 L 138.11302 59.251681 L 138.11302 59.71005 L 138.47992 59.71005 L 138.8923 59.71005 C 139.5955 59.71005 140.19215 59.93977 140.68134 60.398381 C 141.17052 60.856991 141.43004 61.422289 141.46062 62.094918 L 141.46062 81.033813 L 117.61298 58.563867 L 117.15409 58.563867 z M 277.40167 58.563867 L 277.58512 60.260404 C 277.73799 61.391644 277.81457 62.737058 277.81457 64.296334 L 277.81457 83.92511 C 277.81457 84.597739 277.56995 85.163037 277.08076 85.621647 C 276.59158 86.080258 275.99544 86.309977 275.29224 86.309977 L 274.87935 86.309977 L 274.51244 86.309977 L 274.51244 86.768347 L 277.81457 86.768347 L 277.95203 86.768347 L 279.74055 86.768347 L 279.87852 86.768347 L 283.18013 86.768347 L 283.18013 86.309977 L 282.76775 86.309977 L 282.40085 86.309977 C 281.72822 86.309977 281.13209 86.080258 280.61233 85.621647 C 280.12314 85.163037 279.87852 84.597739 279.87852 83.92511 L 279.87336 83.92511 L 279.83925 64.773824 L 303.72616 87.410168 L 304.13906 87.410168 L 304.00108 86.584896 C 303.93993 86.003989 303.87878 85.270127 303.81763 84.38348 C 303.75648 83.466259 303.72616 82.518612 303.72616 81.540243 L 303.72616 62.094918 C 303.72616 61.422289 303.97078 60.856991 304.45997 60.398381 C 304.97973 59.93977 305.57586 59.71005 306.24849 59.71005 L 306.61539 59.71005 L 307.02829 59.71005 L 307.02829 59.251681 L 303.72616 59.251681 L 303.5887 59.251681 L 301.80018 59.251681 L 301.7082 59.251681 L 298.3606 59.251681 L 298.3606 59.71005 L 298.7275 59.71005 L 299.13988 59.71005 C 299.84308 59.71005 300.43922 59.93977 300.9284 60.398381 C 301.41759 60.856991 301.67763 61.422289 301.7082 62.094918 L 301.7082 81.03433 L 277.86056 58.563867 L 277.40167 58.563867 z M 58.326672 58.609859 C 55.238695 58.609859 52.548383 59.190575 50.25533 60.352389 C 47.992852 61.514202 46.250187 63.165392 45.027226 65.305575 C 43.804264 67.445757 43.192712 70.013758 43.192712 73.010014 C 43.192712 75.975695 43.804264 78.528795 45.027226 80.668978 C 46.250187 82.80916 47.992852 84.459834 50.25533 85.621647 C 52.548383 86.78346 55.238695 87.379594 58.326672 87.410168 C 60.13054 87.410168 61.842886 87.180966 63.46331 86.722355 C 65.083734 86.233171 66.53604 85.545562 67.82015 84.658915 C 69.104259 83.772268 70.143898 82.717212 70.938822 81.49425 L 71.443184 75.21143 L 71.03029 75.21143 C 70.87742 77.718501 70.22013 79.766941 69.058317 81.356791 C 67.896504 82.946641 66.383042 84.123491 64.518026 84.887842 C 62.683584 85.621619 60.619725 85.98855 58.326672 85.98855 C 55.911324 85.957976 53.817146 85.422997 52.043852 84.38348 C 50.270558 83.313389 48.894824 81.815345 47.916455 79.889181 C 46.96866 77.932442 46.494836 75.639381 46.494836 73.010014 C 46.494836 70.319499 46.96866 68.011019 47.916455 66.084855 C 48.894824 64.128117 50.25514 62.630073 51.99786 61.590556 C 53.771154 60.520465 55.865848 59.985486 58.281197 59.985486 C 61.124582 59.985486 63.554855 60.597038 65.572742 61.819999 C 67.621202 63.042961 68.982034 65.060565 69.654663 67.873376 L 70.067041 67.873376 L 69.058317 61.407104 C 67.651911 60.520457 65.98582 59.832332 64.059656 59.343148 C 62.133492 58.853963 60.222263 58.609859 58.326672 58.609859 z M 93.51884 58.609859 C 91.378657 58.609859 89.37647 58.961372 87.511454 59.664575 C 85.646438 60.337204 83.995248 61.315687 82.558268 62.599797 C 81.151863 63.883906 80.051069 65.412269 79.256144 67.185563 C 78.461219 68.928283 78.063969 70.869831 78.063969 73.010014 C 78.063969 75.150196 78.461219 77.107162 79.256144 78.880457 C 80.051069 80.623177 81.151863 82.136122 82.558268 83.420231 C 83.995248 84.704341 85.646438 85.698242 87.511454 86.401444 C 89.37647 87.074073 91.378657 87.410168 93.51884 87.410168 C 95.659022 87.410168 97.661725 87.074073 99.526742 86.401444 C 101.42233 85.698242 103.07352 84.704341 104.47993 83.420231 C 105.91691 82.136122 107.0326 80.623177 107.82753 78.880457 C 108.62245 77.107162 109.02022 75.150196 109.02022 73.010014 C 109.02022 70.869831 108.62245 68.928283 107.82753 67.185563 C 107.0326 65.412269 105.91691 63.883906 104.47993 62.599797 C 103.07352 61.315687 101.42233 60.337204 99.526742 59.664575 C 97.661725 58.961372 95.659022 58.609859 93.51884 58.609859 z M 160.73903 58.609859 C 159.33262 58.609859 158.04836 58.915118 156.88655 59.526599 C 155.75531 60.107506 154.8534 60.902523 154.18077 61.911466 C 153.50814 62.92041 153.17205 64.052039 153.17205 65.305575 C 153.17205 66.100499 153.32468 66.941254 153.63042 67.827901 C 153.93616 68.714548 154.51739 69.524467 155.37346 70.258244 L 164.54551 77.320862 C 165.12642 77.84062 165.53909 78.406435 165.78368 79.017916 C 166.05885 79.598823 166.19657 80.256112 166.19657 80.989889 C 166.19657 82.488016 165.64618 83.695702 164.54551 84.612923 C 163.47542 85.49957 161.99279 85.973394 160.0972 86.034542 C 158.75195 86.065116 157.57458 85.835913 156.56564 85.346729 C 155.55669 84.82697 154.79251 84.07769 154.27275 83.09932 C 153.753 82.120951 153.55411 80.944101 153.67641 79.56827 L 153.12605 79.56827 C 152.94261 80.149177 152.78998 80.806466 152.66768 81.540243 C 152.57596 82.274019 152.53022 82.977046 152.53022 83.649674 C 152.53022 84.291729 152.57596 84.826708 152.66768 85.254744 C 153.24859 85.743929 153.98245 86.157114 154.8691 86.493429 C 155.75575 86.799169 156.70339 87.028372 157.71234 87.181242 C 158.75185 87.334112 159.71492 87.410168 160.60157 87.410168 C 162.09969 87.410168 163.46001 87.089491 164.68297 86.447437 C 165.93651 85.774808 166.93041 84.872898 167.66418 83.741659 C 168.39796 82.610419 168.74947 81.371897 168.7189 80.02664 C 168.68833 79.139993 168.50486 78.253501 168.16855 77.366854 C 167.83223 76.449633 167.31267 75.700352 166.60947 75.119446 L 157.34543 67.965361 C 156.88682 67.567898 156.51989 67.170131 156.24473 66.772668 C 156.00013 66.375206 155.81667 65.977956 155.69437 65.580493 C 155.60265 65.152457 155.55691 64.739788 155.55691 64.342326 C 155.52634 63.119364 156.0459 62.095144 157.11599 61.269645 C 158.21666 60.413572 159.53123 59.985486 161.05994 59.985486 C 162.8638 59.985486 164.1938 60.352417 165.04987 61.086194 C 165.90595 61.789397 166.33403 62.76788 166.33403 64.021415 L 166.88439 64.021415 L 166.8384 59.481124 C 166.8325 59.47916 166.82366 59.477403 166.81772 59.475439 L 166.79292 59.022237 L 165.04936 59.022237 C 164.90355 58.995131 164.80022 58.95111 164.6375 58.93077 C 164.17889 58.839048 163.62849 58.762475 162.98643 58.701326 C 162.34438 58.640178 161.5951 58.609859 160.73903 58.609859 z M 327.36141 58.609859 C 324.36516 58.609859 321.73548 59.190575 319.47301 60.352389 C 317.21053 61.514202 315.45296 63.165392 314.19943 65.305575 C 312.94589 67.445757 312.31892 70.013758 312.31892 73.010014 C 312.31892 75.975695 312.94589 78.528795 314.19943 80.668978 C 315.45296 82.80916 317.19563 84.459834 319.42753 85.621647 C 321.69001 86.78346 324.33458 87.379594 327.36141 87.410168 C 329.53217 87.410168 331.4583 87.104909 333.13987 86.493429 C 334.85202 85.881948 336.31974 85.11725 337.5427 84.200028 C 338.76567 83.282807 339.72873 82.380898 340.43193 81.49425 L 340.43193 75.991227 C 340.43193 74.768266 341.11954 74.156714 342.49537 74.156714 L 343.13771 74.156714 L 343.13771 73.697827 L 334.74494 73.697827 L 334.74494 74.156714 L 335.38728 74.156714 C 336.05991 74.156714 336.57947 74.309343 336.94636 74.615084 C 337.34382 74.920824 337.52729 75.364329 337.49671 75.945235 L 337.45072 82.044604 C 336.50293 82.961826 335.4787 83.726007 334.37804 84.337488 C 333.30795 84.918394 332.19225 85.346481 331.03044 85.621647 C 329.86863 85.896813 328.64552 86.034542 327.36141 86.034542 C 325.03779 86.034542 322.98935 85.514981 321.21605 84.475464 C 319.44276 83.405373 318.06702 81.891911 317.08866 79.935173 C 316.11029 77.978434 315.62104 75.669955 315.62104 73.010014 C 315.62104 70.319499 316.11029 68.011019 317.08866 66.084855 C 318.06702 64.128117 319.42734 62.630073 321.17006 61.590556 C 322.94335 60.520465 324.99179 59.985486 327.31542 59.985486 C 329.4556 59.985486 331.29026 60.275844 332.81896 60.85675 C 334.34766 61.407083 335.58567 62.263256 336.53346 63.425069 C 337.51183 64.586883 338.21538 66.069508 338.64341 67.873376 L 339.05579 67.873376 L 338.04707 61.407104 C 337.03812 60.76505 335.96817 60.245489 334.83693 59.848027 C 333.73626 59.41999 332.55889 59.114214 331.30536 58.93077 C 330.0824 58.716752 328.76782 58.609859 327.36141 58.609859 z M 174.65187 59.251681 L 174.65187 59.71005 L 174.97278 59.71005 L 175.33969 59.71005 C 175.95117 59.71005 176.45583 59.908934 176.85329 60.306396 C 177.28132 60.673285 177.51053 61.132207 177.5411 61.68254 L 177.5411 77.13741 C 177.5411 80.31711 178.56532 82.824473 180.61378 84.658915 C 182.69282 86.493357 185.49054 87.410168 189.00655 87.410168 C 192.55314 87.410168 195.33493 86.493357 197.35281 84.658915 C 199.40127 82.793899 200.42549 80.271118 200.42549 77.091418 L 200.42549 61.68254 C 200.45607 61.132207 200.68579 60.673285 201.11382 60.306396 C 201.54186 59.908934 202.046 59.71005 202.62691 59.71005 L 202.94782 59.71005 L 203.31472 59.71005 L 203.31472 59.251681 L 200.42549 59.251681 L 200.33403 59.251681 L 198.40804 59.251681 L 198.31606 59.251681 L 195.42683 59.251681 L 195.42683 59.71005 L 195.74774 59.71005 L 196.11464 59.71005 C 196.72613 59.71005 197.2462 59.908934 197.67424 60.306396 C 198.10228 60.673285 198.31606 61.132207 198.31606 61.68254 L 198.31606 77.091418 C 198.31606 79.90423 197.47531 82.121235 195.79373 83.741659 C 194.14274 85.362082 191.86509 86.172001 188.96056 86.172001 C 186.33119 86.172001 184.25192 85.315828 182.72321 83.603682 C 181.22509 81.891536 180.47632 79.552738 180.47632 76.587056 L 180.47632 61.68254 C 180.47632 61.132207 180.69011 60.673285 181.11814 60.306396 C 181.57675 59.908934 182.09632 59.71005 182.67722 59.71005 L 182.99865 59.71005 L 183.36555 59.71005 L 183.36555 59.251681 L 180.47632 59.251681 L 180.38434 59.251681 L 177.63257 59.251681 L 177.5411 59.251681 L 174.65187 59.251681 z M 209.06424 59.251681 L 209.06424 59.71005 L 209.33968 59.71005 L 209.6146 59.71005 C 210.37895 59.71005 211.02133 59.954671 211.54109 60.443856 C 212.06085 60.902466 212.33579 61.483699 212.36637 62.186902 L 212.36637 83.833126 C 212.33579 84.505755 212.07575 85.086987 211.58657 85.576172 C 211.09738 86.065356 210.47093 86.309977 209.70658 86.309977 L 209.38567 86.309977 L 209.06424 86.309977 L 209.06424 86.768347 L 212.36637 86.768347 L 213.05418 86.768347 L 215.2096 86.768347 L 215.30159 86.768347 L 220.71314 86.768347 L 227.54632 86.768347 L 227.68378 86.768347 L 230.20662 80.210091 L 229.74773 80.210091 C 229.3197 81.18846 228.81504 82.075469 228.23413 82.870394 C 227.65322 83.634745 226.88904 84.24578 225.94125 84.70439 C 225.02403 85.132427 223.80092 85.346729 222.27222 85.346729 L 215.30159 85.346729 L 215.30159 62.186902 C 215.30159 61.483699 215.56163 60.902466 216.08138 60.443856 C 216.63172 59.954671 217.27359 59.71005 218.00736 59.71005 L 218.28228 59.71005 L 218.55772 59.71005 L 218.55772 59.251681 L 215.30159 59.251681 L 215.16413 59.251681 L 212.45835 59.251681 L 212.36637 59.251681 L 209.06424 59.251681 z M 258.3987 59.251681 L 258.3987 59.71005 L 258.67362 59.71005 L 259.04052 59.71005 C 259.89659 59.71005 260.61504 59.954671 261.19594 60.443856 C 261.80742 60.902466 262.12862 61.483699 262.15919 62.186902 L 262.15919 83.833126 C 262.12862 84.505755 261.80742 85.086987 261.19594 85.576172 C 260.61504 86.065356 259.89659 86.309977 259.04052 86.309977 L 258.71961 86.309977 L 258.3987 86.309977 L 258.3987 86.768347 L 262.15919 86.768347 L 262.29665 86.768347 L 264.91096 86.768347 L 265.04842 86.768347 L 268.80892 86.768347 L 268.76344 86.309977 L 268.44201 86.309977 L 268.16709 86.309977 C 267.31102 86.309977 266.57716 86.065356 265.96568 85.576172 C 265.38477 85.086987 265.079 84.505755 265.04842 83.833126 L 265.04842 62.186902 C 265.079 61.483699 265.38477 60.902466 265.96568 60.443856 C 266.57716 59.954671 267.31102 59.71005 268.16709 59.71005 L 268.44201 59.71005 L 268.76344 59.71005 L 268.80892 59.251681 L 265.04842 59.251681 L 264.91096 59.251681 L 262.29665 59.251681 L 262.15919 59.251681 L 258.3987 59.251681 z M 93.51884 59.985486 C 95.781318 59.985486 97.829759 60.535883 99.664201 61.636548 C 101.49864 62.737213 102.95095 64.265576 104.02104 66.222314 C 105.09113 68.148479 105.62663 70.411221 105.62663 73.010014 C 105.62663 75.578233 105.09113 77.840458 104.02104 79.797196 C 102.95095 81.753935 101.49864 83.282815 99.664201 84.38348 C 97.829759 85.484145 95.781318 86.034542 93.51884 86.034542 C 91.286935 86.034542 89.253912 85.484145 87.41947 84.38348 C 85.585028 83.282815 84.132721 81.753935 83.06263 79.797196 C 81.992539 77.840458 81.45756 75.578233 81.45756 73.010014 C 81.45756 70.411221 81.992539 68.148479 83.06263 66.222314 C 84.132721 64.265576 85.585028 62.737213 87.41947 61.636548 C 89.253912 60.535883 91.286935 59.985486 93.51884 59.985486 z " />
  </g>
</svg>
