<?xml version="1.0" encoding="UTF-8" standalone="no"?>
<!-- Created with Inkscape (http://www.inkscape.org/) -->

<svg
   width="1500"
   height="400"
   viewBox="0 0 396.87499 105.83333"
   version="1.1"
   id="svg1"
   inkscape:version="1.3 (0e150ed6c4, 2023-07-21)"
   sodipodi:docname="dwg_text_pallando.svg"
   xmlns:inkscape="http://www.inkscape.org/namespaces/inkscape"
   xmlns:sodipodi="http://sodipodi.sourceforge.net/DTD/sodipodi-0.dtd"
   xmlns="http://www.w3.org/2000/svg"
   xmlns:svg="http://www.w3.org/2000/svg">
  <sodipodi:namedview
     id="namedview1"
     pagecolor="#ffffff"
     bordercolor="#000000"
     borderopacity="0.25"
     inkscape:showpageshadow="2"
     inkscape:pageopacity="0.0"
     inkscape:pagecheckerboard="0"
     inkscape:deskcolor="#d1d1d1"
     inkscape:document-units="mm"
     inkscape:zoom="0.69219276"
     inkscape:cx="769.29438"
     inkscape:cy="244.87399"
     inkscape:window-width="1920"
     inkscape:window-height="991"
     inkscape:window-x="-9"
     inkscape:window-y="-9"
     inkscape:window-maximized="1"
     inkscape:current-layer="layer1" />
  <defs
     id="defs1" />
  <g
     inkscape:label="Layer 1"
     inkscape:groupmode="layer"
     id="layer1">
    <path
       id="text1"
       style="font-style:normal;font-variant:normal;font-weight:normal;font-stretch:normal;font-size:47.625px;font-family:Poppins;-inkscape-font-specification:Poppins;letter-spacing:-1.68804px;word-spacing:3.98992px;fill:#21618c;fill-opacity:1;stroke-width:0.265;stroke-dasharray:none"
       d="m 22.829097,23.134 v 33.432584 h 12.525334 c 3.492497,0 6.55644,-0.69848 9.191687,-2.095479 2.666997,-1.396999 4.715063,-3.365585 6.143811,-5.905583 1.460499,-2.539997 2.190564,-5.444983 2.190564,-8.71523 0,-3.301997 -0.730065,-6.207499 -2.190564,-8.715747 C 49.261181,28.594548 47.228908,26.626478 44.59366,25.229479 41.958413,23.832481 38.878678,23.134 35.354431,23.134 Z m 42.841313,0 -12.096419,33.432584 h 8.524544 l 2.000395,-5.905582 h 12.477791 l 2.000395,5.905582 h 8.619629 L 75.100326,23.134 Z m 21.695833,0 v 6.524666 h 8.858375 v 26.907918 h 8.143692 V 29.658666 h 8.85837 V 23.134 Z m 38.173897,0 -12.09642,33.432584 h 8.52455 l 2.00039,-5.905582 h 12.47779 l 2.0004,5.905582 h 8.62014 L 134.97006,23.134 Z m 34.1421,0 8.477,33.432584 h 9.85832 l 5.52473,-22.002791 5.33404,22.002791 h 9.85831 L 207.44987,23.134 H 198.6871 L 193.82951,47.469982 188.1141,23.134 h -8.95346 L 173.20752,47.469982 168.39747,23.134 Z m 50.17575,0 v 33.432584 h 8.14369 V 23.134 Z m 11.78946,0 v 6.667293 h 14.2875 l -14.2875,20.573938 v 6.191353 h 23.62233 v -6.667293 h -14.3831 l 14.3831,-20.574455 V 23.134 Z m 37.17396,0 -12.09642,33.432584 h 8.52455 l 2.00039,-5.905582 h 12.47779 l 2.0004,5.905582 h 8.62014 L 268.25133,23.134 Z m 23.50554,0 v 33.432584 h 8.14421 V 43.946166 h 1.95233 l 6.95359,12.620418 h 9.19168 l -7.71529,-13.240018 c 2.44475,-0.73025 4.28596,-1.968254 5.52421,-3.714502 1.27,-1.746248 1.90531,-3.730627 1.90531,-5.953125 0,-1.968498 -0.46056,-3.746543 -1.38131,-5.334042 -0.92075,-1.619248 -2.31771,-2.889354 -4.19096,-3.810103 -1.8415,-0.920749 -4.0801,-1.380794 -6.71535,-1.380794 z m 29.36359,0 v 33.432584 h 12.52533 c 3.4925,0 6.55644,-0.69848 9.19169,-2.095479 2.66699,-1.396999 4.71506,-3.365585 6.14381,-5.905583 1.4605,-2.539997 2.19056,-5.444983 2.19056,-8.71523 0,-3.301997 -0.73006,-6.207499 -2.19056,-8.715747 -1.42875,-2.539997 -3.46102,-4.508067 -6.09627,-5.905066 C 330.81985,23.832481 327.74012,23.134 324.21587,23.134 Z m 30.31597,0 11.57294,22.383646 v 11.048938 h 8.14369 V 45.517646 L 373.29608,23.134 h -9.14363 L 357.72287,37.135729 351.24574,23.134 Z m -51.53535,6.762378 h 5.04827 c 1.49225,0 2.6034,0.365291 3.33365,1.09554 0.762,0.730249 1.14308,1.730335 1.14308,3.000334 0,1.333498 -0.38108,2.365169 -1.14308,3.095418 -0.73025,0.730249 -1.8414,1.09554 -3.33365,1.09554 h -5.04827 z M 30.973303,30.087064 h 3.857646 c 3.079747,0 5.476794,0.857438 7.191292,2.571936 1.714498,1.714498 2.571419,4.111545 2.571419,7.191292 0,3.079747 -0.856921,5.461002 -2.571419,7.14375 -1.714498,1.682748 -4.111545,2.523877 -7.191292,2.523877 h -3.857646 z m 288.861437,0 h 3.85765 c 3.07974,0 5.47679,0.857438 7.19129,2.571936 1.7145,1.714498 2.57142,4.111545 2.57142,7.191292 0,3.079747 -0.85692,5.461002 -2.57142,7.14375 -1.7145,1.682748 -4.11155,2.523877 -7.19129,2.523877 h -3.85765 z m -249.496914,2.047937 4.143416,12.239563 h -8.239291 z m 59.869734,0 4.14341,12.239563 h -8.23929 z m 133.28127,0 4.14341,12.239563 h -8.23929 z" />
    <path
       id="text2"
       style="font-style:normal;font-variant:normal;font-weight:bold;font-stretch:normal;font-size:35.2778px;font-family:Poppins;-inkscape-font-specification:'Poppins Bold';letter-spacing:5.29167px;fill:#2d9ce6;fill-opacity:1;stroke-width:0.264583"
       d="m 230.96678,57.728 v 0.635104 0.38809 0.564306 0.105937 2.75177 l 0.35243,-0.03514 v -0.599963 c 0,-0.587963 0.20015,-1.081749 0.59997,-1.481563 0.39981,-0.399815 0.8936,-0.611585 1.48156,-0.635104 h 6.63215 v 21.096387 c -0.0235,0.611481 -0.25853,1.140648 -0.70538,1.5875 -0.42333,0.423333 -0.94088,0.635103 -1.55236,0.635103 h -0.24701 -0.21136 v 0.352434 h 2.71611 0.10594 2.08153 0.10593 2.71612 v -0.352434 h -0.24702 -0.21135 c -0.61148,0 -1.14065,-0.21177 -1.5875,-0.635103 -0.42334,-0.446852 -0.64673,-0.976019 -0.67025,-1.5875 V 59.421437 h 6.63216 c 0.56444,0.02352 1.04661,0.235289 1.44642,0.635104 0.42333,0.399814 0.63459,0.8936 0.63459,1.481563 v 0.599963 l 0.35295,0.03514 V 59.421437 59.3155 58.751194 58.363104 57.728 c -0.21167,0.09407 -0.56445,0.188597 -1.05834,0.282671 -0.49388,0.09407 -1.03467,0.175941 -1.62264,0.246496 -0.56444,0.07056 -1.10523,0.105937 -1.62264,0.105937 h -11.8184 c -0.49388,0 -1.03467,-0.03538 -1.62264,-0.105937 -0.58796,-0.07055 -1.12875,-0.152422 -1.62264,-0.246496 -0.47037,-0.09407 -0.82314,-0.188596 -1.05833,-0.282671 z m -107.49163,0.141594 0.14108,1.30483 c 0.11759,0.870185 0.17621,1.905276 0.17621,3.10472 v 18.30896 c 0,0.587963 -0.21125,1.093887 -0.63458,1.51722 -0.42334,0.423333 -0.92926,0.635103 -1.51722,0.635103 h -0.35244 -0.31781 v 0.352434 h 2.82205 0.10594 1.41128 0.10594 2.82205 v -0.352434 h -0.31729 -0.35295 c -0.58797,0 -1.09337,-0.21177 -1.51671,-0.635103 -0.42333,-0.423333 -0.6351,-0.929257 -0.6351,-1.51722 h -0.004 l -0.0269,-17.517794 19.25671,20.516577 h 0.31729 l -0.10542,-0.635103 c -0.047,-0.446852 -0.094,-1.0114 -0.14108,-1.693437 -0.047,-0.705555 -0.0708,-1.434354 -0.0708,-2.186946 V 60.903 c 0.0235,-0.611481 0.24691,-1.116888 0.67024,-1.516703 0.42333,-0.423333 0.92926,-0.635103 1.51722,-0.635103 h 0.31729 0.3173 v -0.352433 h -2.82205 -0.10594 -1.41077 -0.0708 -2.85771 v 0.352433 h 0.35295 0.31781 c 0.61148,0 1.11689,0.21177 1.5167,0.635103 0.42334,0.399815 0.64673,0.905222 0.67025,1.516703 V 78.386171 L 123.8281,57.869594 Z m 155.18691,0 0.14108,1.30483 c 0.11759,0.870185 0.17673,1.905276 0.17673,3.10472 v 18.30896 c 0,0.587963 -0.21177,1.093887 -0.6351,1.51722 -0.42334,0.423333 -0.92926,0.635103 -1.51722,0.635103 h -0.35244 -0.31781 v 0.352434 h 2.82257 0.10542 1.41128 0.10594 2.82205 v -0.352434 h -0.31729 -0.35295 c -0.58797,0 -1.09337,-0.21177 -1.51671,-0.635103 -0.42333,-0.423333 -0.6351,-0.929257 -0.6351,-1.51722 h -0.004 l -0.0269,-17.517277 19.25671,20.51606 h 0.31781 l -0.10594,-0.635103 c -0.047,-0.446852 -0.094,-1.0114 -0.14108,-1.693437 -0.047,-0.705555 -0.0708,-1.434354 -0.0708,-2.186946 V 60.903 c 0.0235,-0.611481 0.24691,-1.116888 0.67024,-1.516703 0.42333,-0.423333 0.92926,-0.635103 1.51722,-0.635103 h 0.31729 0.31781 v -0.352433 h -2.82256 -0.10594 -1.41077 -0.0708 -2.85719 v 0.352433 h 0.35243 0.31781 c 0.61148,0 1.11689,0.21177 1.5167,0.635103 0.42334,0.399815 0.64673,0.905222 0.67025,1.516703 V 78.386171 L 279.01501,57.869594 Z m -210.608333,0.03514 c -2.587036,0 -4.844712,0.540788 -6.77323,1.62264 -1.904999,1.058333 -3.386873,2.551829 -4.445206,4.480347 -1.058333,1.904999 -1.5875,4.139432 -1.5875,6.70295 0,2.610554 0.529167,4.879852 1.5875,6.80837 1.081851,1.904999 2.575347,3.386873 4.480346,4.445206 1.905,1.058333 4.080292,1.599122 6.526217,1.62264 1.622777,0 3.057649,-0.223391 4.30413,-0.670243 1.269999,-0.47037 2.363715,-1.093543 3.280937,-1.869653 0.94074,-0.79963 1.716542,-1.705335 2.328023,-2.71663 l 0.423747,-5.538681 h -0.282154 c -0.258703,2.398889 -0.870254,4.315925 -1.834513,5.750554 -0.964259,1.411111 -2.164118,2.434063 -3.598747,3.069063 -1.41111,0.611481 -2.951609,0.917257 -4.621423,0.917257 -1.975555,-0.04704 -3.715685,-0.564583 -5.22087,-1.55236 -1.481666,-0.987778 -2.645627,-2.363508 -3.492293,-4.127397 -0.823148,-1.763888 -1.235067,-3.821932 -1.235067,-6.173783 0,-2.351851 0.411919,-4.397757 1.235067,-6.138127 0.846666,-1.763888 2.022248,-3.127998 3.527433,-4.092256 1.528703,-0.987778 3.327974,-1.481564 5.397603,-1.481564 2.116666,0 3.974561,0.540789 5.57382,1.62264 1.599259,1.058333 2.657593,2.622591 3.175,4.69222 h 0.31781 l -0.7059,-4.974373 c -1.034814,-0.682037 -2.257399,-1.246585 -3.66851,-1.693437 -1.387592,-0.47037 -2.95185,-0.705383 -4.69222,-0.705383 z m 32.314303,0 c -2.492958,0 -4.691493,0.540788 -6.596493,1.62264 -1.904999,1.058333 -3.398495,2.551829 -4.480346,4.480347 -1.058333,1.928517 -1.5875,4.174572 -1.5875,6.73809 0,2.563517 0.529167,4.809572 1.5875,6.73809 1.081851,1.928517 2.575347,3.433635 4.480346,4.515486 1.905,1.058333 4.103535,1.5875 6.596493,1.5875 2.51648,0 4.72767,-0.529167 6.63267,-1.5875 1.905,-1.081851 3.38636,-2.586969 4.44469,-4.515486 1.08186,-1.928518 1.62264,-4.174573 1.62264,-6.73809 0,-2.563518 -0.54078,-4.809573 -1.62264,-6.73809 -1.05833,-1.928518 -2.53969,-3.422014 -4.44469,-4.480347 -1.905,-1.081852 -4.11619,-1.62264 -6.63267,-1.62264 z m 62.82976,0 c -1.34055,0 -2.48127,0.293637 -3.42201,0.8816 -0.91722,0.564444 -1.61064,1.305381 -2.08101,2.222603 -0.47037,0.917222 -0.7059,1.869929 -0.7059,2.857707 0,0.682037 0.14152,1.422974 0.42374,2.222603 0.28223,0.776111 0.77601,1.493289 1.48157,2.151807 l 6.77323,6.279203 c 0.44685,0.399815 0.78801,0.881979 1.02319,1.446423 0.23519,0.540926 0.35243,1.152477 0.35243,1.834514 0,1.41111 -0.47002,2.540207 -1.41076,3.386873 -0.91722,0.823148 -2.02256,1.269931 -3.31608,1.340487 -1.03481,0.04704 -1.96376,-0.153112 -2.78691,-0.599964 -0.79963,-0.47037 -1.41118,-1.152166 -1.83451,-2.045869 -0.42334,-0.893704 -0.57648,-1.940416 -0.45889,-3.13986 h -0.31729 c -0.16463,0.517407 -0.29402,1.093576 -0.38809,1.728576 -0.0941,0.611481 -0.14108,1.199789 -0.14108,1.764234 0,0.564444 0.0354,1.03447 0.10594,1.410766 0.47037,0.47037 1.05816,0.85853 1.76371,1.16427 0.72908,0.282222 1.47001,0.482371 2.22261,0.599964 0.77611,0.117592 1.44628,0.176216 2.01073,0.176216 2.02259,0 3.62171,-0.611551 4.79764,-1.834513 1.19944,-1.222963 1.79937,-2.810464 1.79937,-4.7625 0,-0.705555 -0.11776,-1.434354 -0.35295,-2.186947 -0.23518,-0.752592 -0.70521,-1.458148 -1.41077,-2.116666 l -6.94996,-6.420797 c -0.54093,-0.517407 -0.91746,-1.070334 -1.12913,-1.658297 -0.18815,-0.611481 -0.28215,-1.140648 -0.28215,-1.5875 0,-1.081851 0.39978,-2.02242 1.19941,-2.82205 0.79963,-0.823148 1.84634,-1.23455 3.13986,-1.23455 1.10537,0 2.04594,0.329019 2.82205,0.987537 0.77611,0.635 1.16427,1.516945 1.16427,2.645833 h 0.31781 v -3.59823 -0.317293 -0.423747 h -1.61903 c -0.11288,-0.02199 -0.20092,-0.05019 -0.32142,-0.07028 -0.39982,-0.09407 -0.82336,-0.164836 -1.27021,-0.211873 -0.42333,-0.04704 -0.82311,-0.07028 -1.19941,-0.07028 z m 160.4083,0 c -2.49296,0 -4.69202,0.540788 -6.59702,1.62264 -1.905,1.058333 -3.39849,2.551829 -4.48034,4.480347 -1.05834,1.928517 -1.5875,4.174572 -1.5875,6.73809 0,2.563517 0.52916,4.809572 1.5875,6.73809 1.08185,1.904999 2.57534,3.398495 4.48034,4.480346 1.905,1.058333 4.10406,1.599122 6.59702,1.62264 1.7874,0 3.33952,-0.223391 4.65656,-0.670243 1.34056,-0.47037 2.46965,-1.058161 3.38687,-1.763717 0.91723,-0.705555 1.64602,-1.411111 2.18695,-2.116666 v -5.820834 c -0.047,-1.058333 0.54127,-1.5875 1.76423,-1.5875 h 0.52917 v -0.35295 h -6.91482 v 0.35295 h 0.56482 c 1.19944,0 1.79886,0.529167 1.79886,1.5875 l -0.0351,6.244064 c -0.65852,0.634999 -1.41108,1.187409 -2.25775,1.657779 -0.84666,0.446852 -1.75237,0.79963 -2.71663,1.058334 -0.94074,0.235185 -1.92831,0.35295 -2.96312,0.35295 -1.97556,-0.02352 -3.7162,-0.517305 -5.22139,-1.481563 -1.50518,-0.987778 -2.68077,-2.363509 -3.52743,-4.127397 -0.84667,-1.763888 -1.27021,-3.821932 -1.27021,-6.173783 0,-2.351852 0.42354,-4.409896 1.27021,-6.173784 0.84666,-1.763888 2.02225,-3.139619 3.52743,-4.127396 1.50519,-0.987778 3.24583,-1.481564 5.22139,-1.481564 1.55222,0 2.93957,0.246635 4.16253,0.740523 1.22297,0.493889 2.2343,1.211583 3.03393,2.152324 0.82315,0.917222 1.41145,2.05794 1.76423,3.422013 h 0.31729 l -0.70538,-4.974373 c -0.68204,-0.446852 -1.44673,-0.846632 -2.2934,-1.19941 -0.82315,-0.376296 -1.75209,-0.67045 -2.78691,-0.882117 -1.03481,-0.211666 -2.19877,-0.317293 -3.49229,-0.317293 z m -145.45056,0.494027 v 0.352433 h 0.28267 0.28216 c 0.5174,0 0.95257,0.164767 1.30534,0.494027 0.3763,0.329259 0.56431,0.752799 0.56431,1.270206 v 13.89941 c 0,1.834444 0.39978,3.445188 1.19941,4.83278 0.82315,1.364074 1.96387,2.434029 3.42201,3.21014 1.48167,0.752592 3.19856,1.12913 5.15059,1.12913 1.905,0 3.57489,-0.388159 5.00952,-1.16427 1.43463,-0.776111 2.53996,-1.846066 3.31607,-3.21014 0.79963,-1.387592 1.19941,-2.998853 1.19941,-4.833297 V 60.515427 c 0,-0.517407 0.17639,-0.940947 0.52917,-1.270206 0.3763,-0.32926 0.82308,-0.494027 1.34049,-0.494027 h 0.28215 0.28215 v -0.352433 h -2.43396 -0.0708 -1.48157 -0.10593 -2.43396 v 0.352433 h 0.28215 0.28215 c 0.51741,0 0.95257,0.164767 1.30535,0.494027 0.3763,0.329259 0.56431,0.752799 0.56431,1.270206 V 74.37918 c 0,1.622778 -0.32902,3.046028 -0.98754,4.268991 -0.65852,1.199444 -1.57584,2.140013 -2.75177,2.82205 -1.17592,0.682036 -2.55166,1.023193 -4.1274,1.023193 -1.48166,0 -2.78715,-0.352778 -3.91604,-1.058333 -1.12888,-0.729074 -2.01083,-1.740406 -2.64583,-3.033924 -0.61148,-1.293518 -0.91726,-2.787014 -0.91726,-4.480346 V 60.515427 c 0,-0.517407 0.17639,-0.940947 0.52917,-1.270206 0.3763,-0.32926 0.82308,-0.494027 1.34049,-0.494027 h 0.28215 0.28267 v -0.352433 h -2.43448 -0.0703 -2.11666 -0.10594 z m 32.87913,0 v 0.352433 h 0.21188 0.24649 c 0.61149,0 1.12903,0.223391 1.55236,0.670243 0.44686,0.423333 0.68239,0.940879 0.7059,1.55236 v 19.544027 c -0.0235,0.611481 -0.25904,1.140648 -0.7059,1.5875 -0.42333,0.423333 -0.94087,0.635103 -1.55236,0.635103 h -0.24649 -0.21188 v 0.352434 h 2.71663 0.10542 2.08153 0.10594 3.77444 5.75056 0.10593 l 2.04587,-5.714897 h -0.35295 c -0.37629,0.893703 -0.81094,1.693265 -1.30483,2.39882 -0.49388,0.705555 -1.14082,1.258482 -1.94045,1.658297 -0.77611,0.376296 -1.78744,0.564306 -3.03392,0.564306 h -5.04465 v -21.02559 c 0.0235,-0.611481 0.24691,-1.129027 0.67024,-1.55236 0.44685,-0.446852 0.97602,-0.670243 1.5875,-0.670243 h 0.21187 0.2465 v -0.352433 h -2.71611 -0.10594 -2.08153 -0.10542 z m 48.43632,0 v 0.352433 h 0.21188 0.24701 c 0.61148,0 1.12851,0.223391 1.55184,0.670243 0.44686,0.423333 0.68239,0.940879 0.7059,1.55236 v 19.544027 c -0.0235,0.611481 -0.25904,1.140648 -0.7059,1.5875 -0.42333,0.423333 -0.94036,0.635103 -1.55184,0.635103 h -0.24701 -0.21188 v 0.352434 h 2.71663 0.10542 2.08153 0.10594 2.71663 v -0.352434 h -0.24702 -0.21187 c -0.61148,0 -1.14065,-0.21177 -1.5875,-0.635103 -0.42333,-0.446852 -0.64672,-0.976019 -0.67024,-1.5875 V 60.973797 c 0.0235,-0.611481 0.24691,-1.129027 0.67024,-1.55236 0.44685,-0.446852 0.97602,-0.670243 1.5875,-0.670243 h 0.21187 0.24702 v -0.352433 h -2.71663 -0.10594 -2.08153 -0.10542 z m -159.10295,0.564306 c 1.99908,0 3.73972,0.493786 5.22139,1.481564 1.50519,0.987777 2.66915,2.363508 3.49229,4.127396 0.84667,1.763888 1.27021,3.821932 1.27021,6.173784 0,2.351851 -0.42354,4.409895 -1.27021,6.173783 -0.82314,1.763888 -1.9871,3.139619 -3.49229,4.127397 -1.48167,0.987777 -3.22231,1.481563 -5.22139,1.481563 -1.975551,0 -3.715681,-0.493786 -5.220866,-1.481563 -1.481666,-0.987778 -2.645627,-2.363509 -3.492293,-4.127397 -0.823148,-1.763888 -1.235067,-3.821932 -1.235067,-6.173783 0,-2.351852 0.411919,-4.409896 1.235067,-6.173784 0.846666,-1.763888 2.010627,-3.139619 3.492293,-4.127396 1.505185,-0.987778 3.245315,-1.481564 5.220866,-1.481564 z" />
  </g>
</svg>
